<?xml version="1.0" encoding="utf-8"?>
<!DOCTYPE svg PUBLIC "-//W3C//DTD SVG 1.1//EN" "http://www.w3.org/Graphics/SVG/1.1/DTD/svg11.dtd">
<svg version="1.1" id="Layer_1" xmlns="http://www.w3.org/2000/svg" xmlns:xlink="http://www.w3.org/1999/xlink" x="0px" y="0px" viewBox="0 0 1200 1200" enable-background="new 0 0 1200 1200" xml:space="preserve">
<g>
	<path d="M516.053,95.391l-45.168,97.139c-5.412,11.64-0.88,25.435,10.327,31.696
		c12.39,6.921,24.621,14.092,36.695,21.494c237.074,144.768,445.868,382.016,501.425,691.616
		c2.376,13.24,14.898,22.143,28.161,19.901l82.089-17.78c13.474-2.278,22.506-15.162,20-28.595
		c-66.547-356.714-291.761-657.592-599.615-826.647C537.582,77.413,522.01,82.578,516.053,95.391z"></path>
	<path d="M396.438,352.638l-97.446,209.57l-11.607,24.962l-26.117,56.167l-151.54,325.904l-58.08,124.909
		c-5.883,12.653,4.84,26.715,18.599,24.389h0l25.647-4.336l16.133-2.727l27.92-4.72l65.145-11.013l383.03-64.752l27.775-4.695
		l9.122-1.542l104.336-17.638l254.267-42.984c-34.925-140.495-75.344-244.615-155.443-375.685
		C738.08,444.291,588.536,326.114,443.306,251.841 M301.32,1029.726c-66.644,3.377-121.388-51.368-118.011-118.012
		c2.891-57.063,49.259-103.43,106.322-106.322c66.644-3.377,121.389,51.368,118.012,118.012
		C404.75,980.468,358.383,1026.835,301.32,1029.726z M466.658,785.037c-33.783,3.346-61.942-24.814-58.597-58.597
		c2.476-24.999,22.697-45.22,47.696-47.696c33.783-3.346,61.942,24.813,58.596,58.597
		C511.878,762.34,491.657,782.561,466.658,785.037z M497.304,522.459c-3.377-66.644,51.368-121.389,118.012-118.012
		c57.063,2.892,103.43,49.259,106.322,106.322c3.377,66.644-51.368,121.389-118.012,118.012
		C546.563,625.89,500.196,579.523,497.304,522.459z M668.338,970.706c-33.783,3.346-61.942-24.813-58.597-58.596
		c2.475-25,22.696-45.221,47.695-47.697c33.784-3.346,61.943,24.813,58.597,58.597C713.558,948.009,693.338,968.23,668.338,970.706z
		 M780.653,815.235c-33.783,3.346-61.943-24.813-58.597-58.596c2.476-25,22.696-45.22,47.696-47.696
		c33.783-3.346,61.942,24.813,58.597,58.596C825.874,792.539,805.653,812.759,780.653,815.235z"></path>
</g>
</svg>